<mxfile host="www.draw.io" modified="2019-11-17T03:12:32.267Z" agent="Mozilla/5.0 (Macintosh; Intel Mac OS X 10_14_6) AppleWebKit/537.36 (KHTML, like Gecko) Chrome/78.0.3904.97 Safari/537.36" etag="2OjOwIA-0xPGw1_1ZUdt" version="12.2.6" type="github" pages="1">
  <diagram id="yA5nR0rYz5RpOZMSxUu0" name="Page-1">
    <mxGraphModel dx="1412" dy="650" grid="1" gridSize="10" guides="1" tooltips="1" connect="1" arrows="1" fold="1" page="1" pageScale="1" pageWidth="827" pageHeight="1169" math="0" shadow="0">
      <root>
        <mxCell id="0"/>
        <mxCell id="1" parent="0"/>
        <mxCell id="D5n7lsuJ-gVc2ZVC_uNV-14" style="edgeStyle=orthogonalEdgeStyle;rounded=0;orthogonalLoop=1;jettySize=auto;html=1;exitX=1;exitY=0.25;exitDx=0;exitDy=0;entryX=0;entryY=0.25;entryDx=0;entryDy=0;fillColor=#1ba1e2;strokeColor=#006EAF;strokeWidth=2;" edge="1" parent="1" source="D5n7lsuJ-gVc2ZVC_uNV-15" target="D5n7lsuJ-gVc2ZVC_uNV-18">
          <mxGeometry relative="1" as="geometry"/>
        </mxCell>
        <mxCell id="D5n7lsuJ-gVc2ZVC_uNV-15" value="&lt;font style=&quot;font-size: 13px&quot;&gt;节点1&lt;/font&gt;" style="rounded=0;whiteSpace=wrap;html=1;fillColor=#dae8fc;strokeColor=#6c8ebf;" vertex="1" parent="1">
          <mxGeometry x="240" y="80" width="60" height="30" as="geometry"/>
        </mxCell>
        <mxCell id="D5n7lsuJ-gVc2ZVC_uNV-16" style="edgeStyle=orthogonalEdgeStyle;rounded=0;orthogonalLoop=1;jettySize=auto;html=1;exitX=1;exitY=0.25;exitDx=0;exitDy=0;entryX=0;entryY=0.25;entryDx=0;entryDy=0;fillColor=#1ba1e2;strokeColor=#006EAF;strokeWidth=2;" edge="1" parent="1" source="D5n7lsuJ-gVc2ZVC_uNV-18" target="D5n7lsuJ-gVc2ZVC_uNV-21">
          <mxGeometry relative="1" as="geometry"/>
        </mxCell>
        <mxCell id="D5n7lsuJ-gVc2ZVC_uNV-17" style="edgeStyle=orthogonalEdgeStyle;rounded=0;orthogonalLoop=1;jettySize=auto;html=1;exitX=0;exitY=0.75;exitDx=0;exitDy=0;entryX=1;entryY=0.75;entryDx=0;entryDy=0;fillColor=#1ba1e2;strokeColor=#006EAF;strokeWidth=2;" edge="1" parent="1" source="D5n7lsuJ-gVc2ZVC_uNV-18" target="D5n7lsuJ-gVc2ZVC_uNV-15">
          <mxGeometry relative="1" as="geometry"/>
        </mxCell>
        <mxCell id="D5n7lsuJ-gVc2ZVC_uNV-18" value="&lt;font style=&quot;font-size: 13px&quot;&gt;节点2&lt;/font&gt;" style="rounded=0;whiteSpace=wrap;html=1;fillColor=#dae8fc;strokeColor=#6c8ebf;" vertex="1" parent="1">
          <mxGeometry x="340" y="80" width="60" height="30" as="geometry"/>
        </mxCell>
        <mxCell id="D5n7lsuJ-gVc2ZVC_uNV-19" style="edgeStyle=orthogonalEdgeStyle;rounded=0;orthogonalLoop=1;jettySize=auto;html=1;exitX=1;exitY=0.25;exitDx=0;exitDy=0;entryX=0;entryY=0.25;entryDx=0;entryDy=0;fillColor=#1ba1e2;strokeColor=#006EAF;strokeWidth=2;" edge="1" parent="1" source="D5n7lsuJ-gVc2ZVC_uNV-21" target="D5n7lsuJ-gVc2ZVC_uNV-24">
          <mxGeometry relative="1" as="geometry"/>
        </mxCell>
        <mxCell id="D5n7lsuJ-gVc2ZVC_uNV-20" style="edgeStyle=orthogonalEdgeStyle;rounded=0;orthogonalLoop=1;jettySize=auto;html=1;exitX=0;exitY=0.75;exitDx=0;exitDy=0;entryX=1;entryY=0.75;entryDx=0;entryDy=0;fillColor=#1ba1e2;strokeColor=#006EAF;strokeWidth=2;" edge="1" parent="1" source="D5n7lsuJ-gVc2ZVC_uNV-21" target="D5n7lsuJ-gVc2ZVC_uNV-18">
          <mxGeometry relative="1" as="geometry"/>
        </mxCell>
        <mxCell id="D5n7lsuJ-gVc2ZVC_uNV-21" value="&lt;font style=&quot;font-size: 13px&quot;&gt;节点3&lt;/font&gt;" style="rounded=0;whiteSpace=wrap;html=1;fillColor=#dae8fc;strokeColor=#6c8ebf;" vertex="1" parent="1">
          <mxGeometry x="440" y="80" width="60" height="30" as="geometry"/>
        </mxCell>
        <mxCell id="D5n7lsuJ-gVc2ZVC_uNV-22" style="edgeStyle=orthogonalEdgeStyle;rounded=0;orthogonalLoop=1;jettySize=auto;html=1;exitX=1;exitY=0.25;exitDx=0;exitDy=0;entryX=0;entryY=0.25;entryDx=0;entryDy=0;fillColor=#1ba1e2;strokeColor=#006EAF;strokeWidth=2;" edge="1" parent="1" source="D5n7lsuJ-gVc2ZVC_uNV-24" target="D5n7lsuJ-gVc2ZVC_uNV-26">
          <mxGeometry relative="1" as="geometry"/>
        </mxCell>
        <mxCell id="D5n7lsuJ-gVc2ZVC_uNV-23" style="edgeStyle=orthogonalEdgeStyle;rounded=0;orthogonalLoop=1;jettySize=auto;html=1;exitX=0;exitY=0.75;exitDx=0;exitDy=0;entryX=1;entryY=0.75;entryDx=0;entryDy=0;fillColor=#1ba1e2;strokeColor=#006EAF;strokeWidth=2;" edge="1" parent="1" source="D5n7lsuJ-gVc2ZVC_uNV-24" target="D5n7lsuJ-gVc2ZVC_uNV-21">
          <mxGeometry relative="1" as="geometry">
            <mxPoint x="519.8571428571429" y="102.42857142857144" as="targetPoint"/>
          </mxGeometry>
        </mxCell>
        <mxCell id="D5n7lsuJ-gVc2ZVC_uNV-24" value="&lt;font style=&quot;font-size: 13px&quot;&gt;节点4&lt;/font&gt;" style="rounded=0;whiteSpace=wrap;html=1;fillColor=#dae8fc;strokeColor=#6c8ebf;" vertex="1" parent="1">
          <mxGeometry x="540" y="80" width="60" height="30" as="geometry"/>
        </mxCell>
        <mxCell id="D5n7lsuJ-gVc2ZVC_uNV-25" style="edgeStyle=orthogonalEdgeStyle;rounded=0;orthogonalLoop=1;jettySize=auto;html=1;exitX=0;exitY=0.75;exitDx=0;exitDy=0;entryX=1;entryY=0.75;entryDx=0;entryDy=0;fillColor=#1ba1e2;strokeColor=#006EAF;strokeWidth=2;" edge="1" parent="1" source="D5n7lsuJ-gVc2ZVC_uNV-26" target="D5n7lsuJ-gVc2ZVC_uNV-24">
          <mxGeometry relative="1" as="geometry"/>
        </mxCell>
        <mxCell id="D5n7lsuJ-gVc2ZVC_uNV-26" value="&lt;font style=&quot;font-size: 13px&quot;&gt;节点5&lt;/font&gt;" style="rounded=0;whiteSpace=wrap;html=1;fillColor=#dae8fc;strokeColor=#6c8ebf;" vertex="1" parent="1">
          <mxGeometry x="640" y="80" width="60" height="30" as="geometry"/>
        </mxCell>
        <mxCell id="D5n7lsuJ-gVc2ZVC_uNV-27" value="&lt;font style=&quot;font-size: 13px&quot;&gt;5&lt;/font&gt;" style="rounded=0;whiteSpace=wrap;html=1;fillColor=#dae8fc;strokeColor=#6c8ebf;" vertex="1" parent="1">
          <mxGeometry x="240" y="150" width="60" height="30" as="geometry"/>
        </mxCell>
        <mxCell id="D5n7lsuJ-gVc2ZVC_uNV-28" value="&lt;font style=&quot;font-size: 13px&quot;&gt;1&lt;/font&gt;" style="rounded=0;whiteSpace=wrap;html=1;fillColor=#dae8fc;strokeColor=#6c8ebf;" vertex="1" parent="1">
          <mxGeometry x="340" y="150" width="60" height="30" as="geometry"/>
        </mxCell>
        <mxCell id="D5n7lsuJ-gVc2ZVC_uNV-29" value="&lt;font style=&quot;font-size: 13px&quot;&gt;5&lt;/font&gt;" style="rounded=0;whiteSpace=wrap;html=1;fillColor=#dae8fc;strokeColor=#6c8ebf;" vertex="1" parent="1">
          <mxGeometry x="440" y="150" width="60" height="30" as="geometry"/>
        </mxCell>
        <mxCell id="D5n7lsuJ-gVc2ZVC_uNV-30" value="&lt;font style=&quot;font-size: 13px&quot;&gt;1&lt;/font&gt;" style="rounded=0;whiteSpace=wrap;html=1;fillColor=#dae8fc;strokeColor=#6c8ebf;" vertex="1" parent="1">
          <mxGeometry x="540" y="150" width="60" height="30" as="geometry"/>
        </mxCell>
        <mxCell id="D5n7lsuJ-gVc2ZVC_uNV-31" value="&lt;font style=&quot;font-size: 13px&quot;&gt;3&lt;/font&gt;" style="rounded=0;whiteSpace=wrap;html=1;fillColor=#dae8fc;strokeColor=#6c8ebf;" vertex="1" parent="1">
          <mxGeometry x="640" y="150" width="60" height="30" as="geometry"/>
        </mxCell>
        <mxCell id="D5n7lsuJ-gVc2ZVC_uNV-32" value="&lt;font style=&quot;font-size: 16px&quot;&gt;频率记录：&lt;/font&gt;" style="text;html=1;resizable=0;points=[];autosize=1;align=left;verticalAlign=top;spacingTop=-4;" vertex="1" parent="1">
          <mxGeometry x="150" y="155" width="100" height="20" as="geometry"/>
        </mxCell>
        <mxCell id="D5n7lsuJ-gVc2ZVC_uNV-33" value="频率5：" style="text;html=1;resizable=0;points=[];autosize=1;align=left;verticalAlign=top;spacingTop=-4;fontSize=16;" vertex="1" parent="1">
          <mxGeometry x="300" y="232.5" width="60" height="20" as="geometry"/>
        </mxCell>
        <mxCell id="D5n7lsuJ-gVc2ZVC_uNV-34" value="频率3：" style="text;html=1;resizable=0;points=[];autosize=1;align=left;verticalAlign=top;spacingTop=-4;fontSize=16;" vertex="1" parent="1">
          <mxGeometry x="300" y="282.5" width="60" height="20" as="geometry"/>
        </mxCell>
        <mxCell id="D5n7lsuJ-gVc2ZVC_uNV-35" value="频率1：" style="text;html=1;resizable=0;points=[];autosize=1;align=left;verticalAlign=top;spacingTop=-4;fontSize=16;" vertex="1" parent="1">
          <mxGeometry x="300" y="332.5" width="60" height="20" as="geometry"/>
        </mxCell>
        <mxCell id="D5n7lsuJ-gVc2ZVC_uNV-36" value="&lt;span style=&quot;font-size: 13px&quot;&gt;节点1&lt;/span&gt;" style="rounded=0;whiteSpace=wrap;html=1;fillColor=#dae8fc;strokeColor=#6c8ebf;" vertex="1" parent="1">
          <mxGeometry x="370" y="227.5" width="60" height="30" as="geometry"/>
        </mxCell>
        <mxCell id="D5n7lsuJ-gVc2ZVC_uNV-37" value="&lt;span style=&quot;font-size: 13px&quot;&gt;节点3&lt;/span&gt;" style="rounded=0;whiteSpace=wrap;html=1;fillColor=#dae8fc;strokeColor=#6c8ebf;" vertex="1" parent="1">
          <mxGeometry x="470" y="227.5" width="60" height="30" as="geometry"/>
        </mxCell>
        <mxCell id="D5n7lsuJ-gVc2ZVC_uNV-38" value="&lt;span style=&quot;font-size: 13px&quot;&gt;......&lt;/span&gt;" style="rounded=0;whiteSpace=wrap;html=1;fillColor=#dae8fc;strokeColor=#6c8ebf;" vertex="1" parent="1">
          <mxGeometry x="570" y="227.5" width="60" height="30" as="geometry"/>
        </mxCell>
        <mxCell id="D5n7lsuJ-gVc2ZVC_uNV-39" value="&lt;span style=&quot;font-size: 13px&quot;&gt;节点5&lt;/span&gt;" style="rounded=0;whiteSpace=wrap;html=1;fillColor=#dae8fc;strokeColor=#6c8ebf;" vertex="1" parent="1">
          <mxGeometry x="370" y="277.5" width="60" height="30" as="geometry"/>
        </mxCell>
        <mxCell id="D5n7lsuJ-gVc2ZVC_uNV-40" value="&lt;span style=&quot;font-size: 13px&quot;&gt;......&lt;/span&gt;" style="rounded=0;whiteSpace=wrap;html=1;fillColor=#dae8fc;strokeColor=#6c8ebf;" vertex="1" parent="1">
          <mxGeometry x="470" y="277.5" width="60" height="30" as="geometry"/>
        </mxCell>
        <mxCell id="D5n7lsuJ-gVc2ZVC_uNV-41" value="&lt;span style=&quot;font-size: 13px&quot;&gt;节点2&lt;/span&gt;" style="rounded=0;whiteSpace=wrap;html=1;fillColor=#dae8fc;strokeColor=#6c8ebf;" vertex="1" parent="1">
          <mxGeometry x="370" y="327.5" width="60" height="30" as="geometry"/>
        </mxCell>
        <mxCell id="D5n7lsuJ-gVc2ZVC_uNV-42" value="&lt;span style=&quot;font-size: 13px&quot;&gt;节点4&lt;/span&gt;" style="rounded=0;whiteSpace=wrap;html=1;fillColor=#dae8fc;strokeColor=#6c8ebf;" vertex="1" parent="1">
          <mxGeometry x="470" y="327.5" width="60" height="30" as="geometry"/>
        </mxCell>
        <mxCell id="D5n7lsuJ-gVc2ZVC_uNV-43" value="&lt;span style=&quot;font-size: 13px&quot;&gt;......&lt;/span&gt;" style="rounded=0;whiteSpace=wrap;html=1;fillColor=#dae8fc;strokeColor=#6c8ebf;" vertex="1" parent="1">
          <mxGeometry x="570" y="327.5" width="60" height="30" as="geometry"/>
        </mxCell>
        <mxCell id="D5n7lsuJ-gVc2ZVC_uNV-45" value="&lt;font color=&quot;#ff0000&quot;&gt;&lt;span style=&quot;font-size: 16px&quot;&gt;&amp;nbsp; &amp;nbsp;同频率节点按FIFO算法淘汰&amp;nbsp; &amp;nbsp;&lt;/span&gt;&lt;/font&gt;" style="text;html=1;resizable=0;points=[];autosize=1;align=center;verticalAlign=middle;spacingTop=0;fillColor=none;strokeColor=#FF3333;" vertex="1" parent="1">
          <mxGeometry x="450" y="390" width="240" height="20" as="geometry"/>
        </mxCell>
        <mxCell id="D5n7lsuJ-gVc2ZVC_uNV-46" value="" style="endArrow=classic;html=1;fontSize=16;entryX=0.5;entryY=1;entryDx=0;entryDy=0;strokeWidth=3;fillColor=#f8cecc;strokeColor=#b85450;" edge="1" parent="1" target="D5n7lsuJ-gVc2ZVC_uNV-41">
          <mxGeometry width="50" height="50" relative="1" as="geometry">
            <mxPoint x="400" y="420" as="sourcePoint"/>
            <mxPoint x="300" y="400" as="targetPoint"/>
          </mxGeometry>
        </mxCell>
        <mxCell id="D5n7lsuJ-gVc2ZVC_uNV-47" value="" style="endArrow=classic;html=1;fontSize=16;entryX=-0.017;entryY=0.4;entryDx=0;entryDy=0;strokeWidth=3;fillColor=#f8cecc;strokeColor=#b85450;entryPerimeter=0;" edge="1" parent="1">
          <mxGeometry width="50" height="50" relative="1" as="geometry">
            <mxPoint x="227" y="342.5" as="sourcePoint"/>
            <mxPoint x="295.98" y="342.5" as="targetPoint"/>
            <Array as="points">
              <mxPoint x="267" y="343"/>
            </Array>
          </mxGeometry>
        </mxCell>
      </root>
    </mxGraphModel>
  </diagram>
</mxfile>
